<?xml version="1.0" encoding="utf-8"?>
<!-- Generator: Adobe Illustrator 28.0.0, SVG Export Plug-In . SVG Version: 6.00 Build 0)  -->
<svg version="1.1" id="Camada_1" xmlns="http://www.w3.org/2000/svg" xmlns:xlink="http://www.w3.org/1999/xlink" x="0px" y="0px"
	 viewBox="0 0 595.28 841.89" style="enable-background:new 0 0 595.28 841.89;" xml:space="preserve">
<style type="text/css">
	.st0{fill:url(#SVGID_1_);}
	.st1{fill:url(#SVGID_00000099639933035537837420000010023096985736944819_);}
	.st2{fill:url(#SVGID_00000153667446619371115300000007096200455484957062_);}
	.st3{fill:#7C7C7C;}
</style>
<g>
	<g>
		<path d="M82.35,243.21c0.15-2.34,0.29-6.65,0.29-10.67v-41.22h11.11v20.39h0.15c2.12-3.07,5.85-5.04,10.82-5.04
			c8.55,0,14.84,7.09,14.76,18.05c0,12.86-8.19,19.3-16.37,19.3c-4.17,0-8.19-1.54-10.74-5.77h-0.15l-0.44,4.97H82.35z
			 M93.75,228.01c0,0.73,0.07,1.39,0.22,1.97c0.73,3,3.29,5.26,6.51,5.26c4.75,0,7.67-3.65,7.67-10.09c0-5.55-2.49-9.94-7.67-9.94
			c-3,0-5.77,2.27-6.51,5.48c-0.15,0.66-0.22,1.32-0.22,2.05V228.01z"/>
		<path d="M138.78,197.24v10.23h7.97v8.19h-7.97v12.94c0,4.31,1.02,6.29,4.39,6.29c1.39,0,2.48-0.15,3.29-0.29l0.07,8.41
			c-1.46,0.58-4.09,0.95-7.24,0.95c-3.58,0-6.58-1.24-8.33-3.07c-2.05-2.12-3.07-5.55-3.07-10.6v-14.62h-4.75v-8.19h4.75v-7.75
			L138.78,197.24z"/>
		<path d="M150.32,236.85l11.26-14.11c2.05-2.41,3.65-4.17,5.7-6.36v-0.15h-15.71v-8.77h29.24v6.65l-10.74,13.52
			c-1.97,2.34-3.8,4.6-5.85,6.58v0.15h17.18v8.84h-31.06V236.85z"/>
	</g>
	<g>
		<linearGradient id="SVGID_1_" gradientUnits="userSpaceOnUse" x1="82.3525" y1="217.6677" x2="181.3867" y2="217.6677">
			<stop  offset="0" style="stop-color:#4D9E89"/>
			<stop  offset="1" style="stop-color:#0089CA"/>
		</linearGradient>
		<path class="st0" d="M82.35,243.21c0.15-2.34,0.29-6.65,0.29-10.67v-41.22h11.11v20.39h0.15c2.12-3.07,5.85-5.04,10.82-5.04
			c8.55,0,14.84,7.09,14.76,18.05c0,12.86-8.19,19.3-16.37,19.3c-4.17,0-8.19-1.54-10.74-5.77h-0.15l-0.44,4.97H82.35z
			 M93.75,228.01c0,0.73,0.07,1.39,0.22,1.97c0.73,3,3.29,5.26,6.51,5.26c4.75,0,7.67-3.65,7.67-10.09c0-5.55-2.49-9.94-7.67-9.94
			c-3,0-5.77,2.27-6.51,5.48c-0.15,0.66-0.22,1.32-0.22,2.05V228.01z"/>
		
			<linearGradient id="SVGID_00000183957681951748304540000001132550853782884539_" gradientUnits="userSpaceOnUse" x1="82.3525" y1="217.6677" x2="181.3867" y2="217.6677">
			<stop  offset="0" style="stop-color:#4D9E89"/>
			<stop  offset="1" style="stop-color:#0089CA"/>
		</linearGradient>
		<path style="fill:url(#SVGID_00000183957681951748304540000001132550853782884539_);" d="M138.78,197.24v10.23h7.97v8.19h-7.97
			v12.94c0,4.31,1.02,6.29,4.39,6.29c1.39,0,2.48-0.15,3.29-0.29l0.07,8.41c-1.46,0.58-4.09,0.95-7.24,0.95
			c-3.58,0-6.58-1.24-8.33-3.07c-2.05-2.12-3.07-5.55-3.07-10.6v-14.62h-4.75v-8.19h4.75v-7.75L138.78,197.24z"/>
		
			<linearGradient id="SVGID_00000034783917526172262780000013872763691853167749_" gradientUnits="userSpaceOnUse" x1="82.3525" y1="217.6677" x2="181.3867" y2="217.6677">
			<stop  offset="0" style="stop-color:#4D9E89"/>
			<stop  offset="1" style="stop-color:#0089CA"/>
		</linearGradient>
		<path style="fill:url(#SVGID_00000034783917526172262780000013872763691853167749_);" d="M150.32,236.85l11.26-14.11
			c2.05-2.41,3.65-4.17,5.7-6.36v-0.15h-15.71v-8.77h29.24v6.65l-10.74,13.52c-1.97,2.34-3.8,4.6-5.85,6.58v0.15h17.18v8.84h-31.06
			V236.85z"/>
	</g>
</g>
<g>
	<path class="st3" d="M207.69,197.68v10.16h9.21v4.9h-9.21v19.08c0,4.39,1.24,6.87,4.82,6.87c1.68,0,2.92-0.22,3.73-0.44l0.29,4.82
		c-1.24,0.51-3.22,0.88-5.7,0.88c-3,0-5.41-0.95-6.94-2.7c-1.83-1.9-2.48-5.04-2.48-9.21v-19.3h-5.48v-4.9h5.48v-8.48L207.69,197.68
		z"/>
	<path class="st3" d="M224.13,218.87c0-4.17-0.07-7.75-0.29-11.04h5.63l0.22,6.94h0.29c1.61-4.75,5.48-7.75,9.79-7.75
		c0.73,0,1.24,0.07,1.83,0.22v6.07c-0.66-0.15-1.32-0.22-2.19-0.22c-4.53,0-7.75,3.44-8.62,8.26c-0.15,0.88-0.29,1.9-0.29,3v18.86
		h-6.36V218.87z"/>
	<path class="st3" d="M267.25,243.21l-0.51-4.46h-0.22c-1.97,2.78-5.77,5.26-10.82,5.26c-7.16,0-10.82-5.04-10.82-10.16
		c0-8.55,7.6-13.23,21.27-13.16v-0.73c0-2.92-0.8-8.19-8.04-8.19c-3.29,0-6.72,1.02-9.21,2.63l-1.46-4.24
		c2.92-1.9,7.16-3.14,11.62-3.14c10.82,0,13.45,7.38,13.45,14.47v13.23c0,3.07,0.15,6.07,0.58,8.48H267.25z M266.3,225.16
		c-7.02-0.15-14.98,1.1-14.98,7.97c0,4.17,2.78,6.14,6.07,6.14c4.6,0,7.53-2.92,8.55-5.92c0.22-0.66,0.37-1.39,0.37-2.05V225.16z"/>
	<path class="st3" d="M282.9,217.41c0-3.65-0.07-6.65-0.29-9.57h5.7l0.37,5.85h0.15c1.75-3.36,5.85-6.65,11.69-6.65
		c4.9,0,12.5,2.92,12.5,15.06v21.12h-6.43v-20.39c0-5.7-2.12-10.45-8.19-10.45c-4.24,0-7.53,3-8.62,6.58c-0.29,0.8-0.44,1.9-0.44,3
		v21.27h-6.43V217.41z"/>
	<path class="st3" d="M322.58,236.63c1.9,1.24,5.26,2.56,8.48,2.56c4.68,0,6.87-2.34,6.87-5.26c0-3.07-1.83-4.75-6.58-6.5
		c-6.36-2.27-9.36-5.77-9.36-10.01c0-5.7,4.6-10.38,12.21-10.38c3.58,0,6.72,1.02,8.7,2.19l-1.61,4.68
		c-1.39-0.88-3.95-2.05-7.24-2.05c-3.8,0-5.92,2.19-5.92,4.82c0,2.92,2.12,4.24,6.72,5.99c6.14,2.34,9.28,5.41,9.28,10.67
		c0,6.21-4.82,10.6-13.23,10.6c-3.87,0-7.46-0.95-9.94-2.41L322.58,236.63z"/>
	<path class="st3" d="M352.4,219.39c0-4.53-0.15-8.19-0.29-11.55h5.77l0.29,6.07h0.15c2.63-4.31,6.8-6.87,12.57-6.87
		c8.55,0,14.98,7.24,14.98,17.98c0,12.72-7.75,19-16.08,19c-4.68,0-8.77-2.05-10.89-5.56h-0.15v19.22h-6.36V219.39z M358.76,228.81
		c0,0.95,0.15,1.83,0.29,2.63c1.17,4.46,5.04,7.53,9.65,7.53c6.8,0,10.74-5.55,10.74-13.67c0-7.09-3.73-13.16-10.53-13.16
		c-4.39,0-8.48,3.14-9.72,7.97c-0.22,0.8-0.44,1.75-0.44,2.63V228.81z"/>
	<path class="st3" d="M426,225.23c0,13.08-9.06,18.78-17.61,18.78c-9.58,0-16.96-7.02-16.96-18.2c0-11.84,7.75-18.78,17.54-18.78
		C419.13,207.03,426,214.42,426,225.23z M397.93,225.6c0,7.75,4.46,13.59,10.74,13.59c6.14,0,10.74-5.77,10.74-13.74
		c0-5.99-3-13.59-10.6-13.59C401.22,211.86,397.93,218.87,397.93,225.6z"/>
	<path class="st3" d="M434.11,218.87c0-4.17-0.07-7.75-0.29-11.04h5.63l0.22,6.94h0.29c1.61-4.75,5.48-7.75,9.79-7.75
		c0.73,0,1.24,0.07,1.83,0.22v6.07c-0.66-0.15-1.32-0.22-2.19-0.22c-4.53,0-7.75,3.44-8.62,8.26c-0.15,0.88-0.29,1.9-0.29,3v18.86
		h-6.36V218.87z"/>
	<path class="st3" d="M467.51,197.68v10.16h9.21v4.9h-9.21v19.08c0,4.39,1.24,6.87,4.82,6.87c1.68,0,2.92-0.22,3.73-0.44l0.29,4.82
		c-1.24,0.51-3.22,0.88-5.7,0.88c-3,0-5.41-0.95-6.94-2.7c-1.83-1.9-2.49-5.04-2.49-9.21v-19.3h-5.48v-4.9h5.48v-8.48L467.51,197.68
		z"/>
	<path class="st3" d="M483.08,236.63c1.9,1.24,5.26,2.56,8.48,2.56c4.68,0,6.87-2.34,6.87-5.26c0-3.07-1.83-4.75-6.58-6.5
		c-6.36-2.27-9.36-5.77-9.36-10.01c0-5.7,4.6-10.38,12.21-10.38c3.58,0,6.72,1.02,8.7,2.19l-1.61,4.68
		c-1.39-0.88-3.95-2.05-7.24-2.05c-3.8,0-5.92,2.19-5.92,4.82c0,2.92,2.12,4.24,6.72,5.99c6.14,2.34,9.28,5.41,9.28,10.67
		c0,6.21-4.82,10.6-13.23,10.6c-3.87,0-7.46-0.95-9.94-2.41L483.08,236.63z"/>
</g>
<g>
	<path class="st3" d="M525.68,203.57c0,3.72-2.92,6.64-6.72,6.64c-3.76,0-6.76-2.92-6.76-6.64c0-3.64,3-6.56,6.76-6.56
		C522.76,197.01,525.68,199.93,525.68,203.57z M513.88,203.57c0,2.92,2.16,5.24,5.12,5.24c2.88,0,5-2.32,5-5.2
		c0-2.92-2.12-5.28-5.04-5.28C516.04,198.33,513.88,200.69,513.88,203.57z M517.92,207.01h-1.52v-6.56c0.6-0.12,1.44-0.2,2.52-0.2
		c1.24,0,1.8,0.2,2.28,0.48c0.36,0.28,0.64,0.8,0.64,1.44c0,0.72-0.56,1.28-1.36,1.52v0.08c0.64,0.24,1,0.72,1.2,1.6
		c0.2,1,0.32,1.4,0.48,1.64h-1.64c-0.2-0.24-0.32-0.84-0.52-1.6c-0.12-0.72-0.52-1.04-1.36-1.04h-0.72V207.01z M517.96,203.29h0.72
		c0.84,0,1.52-0.28,1.52-0.96c0-0.6-0.44-1-1.4-1c-0.4,0-0.68,0.04-0.84,0.08V203.29z"/>
</g>
</svg>
